# xmcd
#
# Track frame offsets: 
#        150
#        52185
#        55196
#        82274
#        104189
#        121148
#        123068
#        163985
#        167455
#        181632
#        192180
#        202026
#        203211
#        211293
#        215568
#        227391
#        230820
#        240828
#        243384
#        252693
#        256722
#        266016
#        270717
#        279057
#        281505
#        290841
#        291198
#        301227
#        308031
#        318504
#        323505
#        328923
#        329226
#        337515
#        338263
#        343222
#
# Disc length: 4790 seconds
#
# Revision: 0
# Processed by: cddbd v1.5.2PL0 Copyright (c) Steve Scherf et al.
# Submitted via: ExactAudioCopy v0.95b3
#
DISCID=2712b424
DTITLE=The Beatles  - Turn Left At Greenland - Disc 3
DYEAR=1900
DGENRE=
TTITLE0=Train To Washington D.C.
TTITLE1=Ed Rudy At Union Station
TTITLE2=Washington D.C. Press Conference
TTITLE3=Washington D.C. TV Interviews
TTITLE4=WCAO Interviews
TTITLE5=WMUC Promos
TTITLE6=WWDC Interview
TTITLE7=WWDC Fan Interviews
TTITLE8=Murray The K w \\ Ringo
TTITLE9=Intro
TTITLE10=Roll Over Bethoven
TTITLE11=Intro
TTITLE12=From Me To You
TTITLE13=Intro
TTITLE14=I Saw Her Standing There
TTITLE15=Intro
TTITLE16=This Boy
TTITLE17=Intro
TTITLE18=All My Loving
TTITLE19=Intro
TTITLE20=I Wanna Be Your Man
TTITLE21=Intro
TTITLE22=Please Please
TTITLE23=Intro
TTITLE24=Till There Was You
TTITLE25=Intro
TTITLE26=She Loves You
TTITLE27=Intro
TTITLE28=I Wanna Hold Your Hand
TTITLE29=Intro
TTITLE30=Twist and Shout
TTITLE31=Intro
TTITLE32=Long Tall Sally
TTITLE33=Intro
TTITLE34=British Embassy TV Interview
TTITLE35=Ed Rudy At British Embassy
EXTD=
EXTT0=
EXTT1=
EXTT2=
EXTT3=
EXTT4=
EXTT5=
EXTT6=
EXTT7=
EXTT8=
EXTT9=
EXTT10=
EXTT11=
EXTT12=
EXTT13=
EXTT14=
EXTT15=
EXTT16=
EXTT17=
EXTT18=
EXTT19=
EXTT20=
EXTT21=
EXTT22=
EXTT23=
EXTT24=
EXTT25=
EXTT26=
EXTT27=
EXTT28=
EXTT29=
EXTT30=
EXTT31=
EXTT32=
EXTT33=
EXTT34=
EXTT35=
PLAYORDER=
